<svg xmlns="http://www.w3.org/2000/svg" viewBox="0 0 600 320" role="img" aria-label="Throughput reservas e pagamentos">
  <style>
    .axis { stroke: #cbd5e1; stroke-width: 1; }
    .grid { stroke: #e2e8f0; stroke-width: 1; }
    .label { font-family: Inter, sans-serif; font-size: 11px; fill: #64748b; }
    .bar { fill: #00bfa5; opacity: 0.85; }
    .bar.warn { fill: #fbbf24; }
    .bar.alert { fill: #ff5252; }
  </style>
  <line class="grid" x1="40" y1="60" x2="580" y2="60"/>
  <line class="grid" x1="40" y1="140" x2="580" y2="140"/>
  <line class="grid" x1="40" y1="220" x2="580" y2="220"/>
  <line class="axis" x1="40" y1="280" x2="580" y2="280"/>
  <text class="label" x="14" y="60">18k</text>
  <text class="label" x="14" y="140">9k</text>
  <text class="label" x="14" y="220">0</text>
  <text class="label" x="40" y="298">20h</text>
  <text class="label" x="130" y="298">00h</text>
  <text class="label" x="220" y="298">04h</text>
  <text class="label" x="310" y="298">08h</text>
  <text class="label" x="400" y="298">12h</text>
  <text class="label" x="490" y="298">16h</text>
  <text class="label" x="560" y="298">20h</text>
  <rect class="bar" x="50" y="260" width="22" height="20"/>
  <rect class="bar" x="80" y="258" width="22" height="22"/>
  <rect class="bar" x="110" y="262" width="22" height="18"/>
  <rect class="bar" x="140" y="260" width="22" height="20"/>
  <rect class="bar" x="170" y="262" width="22" height="18"/>
  <rect class="bar" x="200" y="258" width="22" height="22"/>
  <rect class="bar" x="230" y="260" width="22" height="20"/>
  <rect class="bar" x="260" y="256" width="22" height="24"/>
  <rect class="bar warn" x="290" y="180" width="22" height="100"/>
  <rect class="bar alert" x="320" y="80" width="22" height="200"/>
  <rect class="bar alert" x="350" y="90" width="22" height="190"/>
  <rect class="bar alert" x="380" y="100" width="22" height="180"/>
  <rect class="bar alert" x="410" y="92" width="22" height="188"/>
  <rect class="bar alert" x="440" y="96" width="22" height="184"/>
  <rect class="bar alert" x="470" y="90" width="22" height="190"/>
  <rect class="bar alert" x="500" y="94" width="22" height="186"/>
  <rect class="bar alert" x="530" y="98" width="22" height="182"/>
  <rect class="bar alert" x="560" y="102" width="22" height="178"/>
</svg>
